<svg width="579" height="427" viewBox="0 0 579 427" fill="none" xmlns="http://www.w3.org/2000/svg">
<g clip-path="url(#clip0_6_91)">
<path opacity="0.18" d="M307.075 427C371.077 427 422.962 417.862 422.962 406.59C422.962 395.318 371.077 386.18 307.075 386.18C243.072 386.18 191.187 395.318 191.187 406.59C191.187 417.862 243.072 427 307.075 427Z" fill="#68E1FD"/>
<path opacity="0.18" d="M450.766 189.616C451.387 166.601 441.113 144.801 430.95 124.033C419.134 99.8997 406.541 74.9953 385.128 58.2875C359.199 38.0079 323.473 32.8186 290.665 37.7473C257.857 42.6761 227.235 56.7024 197.744 71.619C180.325 80.4343 163.006 89.673 147.539 101.474C137.909 108.824 128.8 117.487 124.24 128.615C120.257 138.266 120.046 148.948 119.89 159.349L118.248 268.357C118.16 274.284 118.093 280.386 120.223 285.933C123.097 293.391 129.51 298.906 135.69 304.096C148.227 314.626 161.697 325.591 178.039 327.98C195.259 330.498 212.367 322.986 229.776 322.551C250.69 322.063 270.228 331.736 290.266 337.642C315.356 345.007 341.854 346.56 367.664 342.18C386.104 339.02 404.655 332.409 417.681 319.284C425.181 311.684 430.507 302.337 434.734 292.642C440.556 279.298 444.444 265.222 446.284 250.824C447.571 240.793 452.674 230.197 453.029 220.35C453.407 210.319 450.478 200.06 450.766 189.616Z" fill="#68E1FD"/>
<path d="M264.503 224.009C260.465 219.934 255.882 216.414 250.878 213.543C249.022 212.357 246.945 211.541 244.765 211.144C243.093 210.93 241.392 211.151 239.835 211.786C238.279 212.421 236.921 213.447 235.9 214.76C234.878 216.074 234.23 217.628 234.019 219.265C233.809 220.902 234.044 222.565 234.702 224.085C235.945 226.489 237.751 228.572 239.972 230.164C247.224 236.07 255.354 240.858 264.081 244.364C265.631 245.088 267.314 245.498 269.03 245.57C271.626 245.57 273.967 244.061 275.975 242.443C281.711 237.796 285.961 231.587 289.777 225.377C292.706 220.665 295.525 215.812 297.067 210.504C297.943 207.486 298.398 204.37 298.964 201.287C299.53 198.203 300.151 195.37 300.906 192.439C301.549 189.953 303.79 185.838 303.58 183.33C303.08 177.609 295.092 183.808 292.951 185.306C284.515 191.397 277.471 199.144 272.269 208.05C269.206 213.136 266.607 218.476 264.503 224.009V224.009Z" fill="#68E1FD"/>
<path d="M264.503 224.009C260.465 219.934 255.882 216.414 250.878 213.543C249.022 212.357 246.945 211.541 244.765 211.144C243.093 210.93 241.392 211.151 239.835 211.786C238.279 212.421 236.921 213.447 235.9 214.76C234.878 216.074 234.23 217.628 234.019 219.265C233.809 220.902 234.044 222.565 234.702 224.085C235.945 226.489 237.751 228.572 239.972 230.164C247.224 236.07 255.354 240.858 264.081 244.364C265.631 245.088 267.314 245.498 269.03 245.57C271.626 245.57 273.967 244.061 275.975 242.443C281.711 237.796 285.961 231.587 289.777 225.377C292.706 220.665 295.525 215.812 297.067 210.504C297.943 207.486 298.398 204.37 298.964 201.287C299.53 198.203 300.151 195.37 300.906 192.439C301.549 189.953 303.79 185.838 303.58 183.33C303.08 177.609 295.092 183.808 292.951 185.306C284.515 191.397 277.471 199.144 272.269 208.05C269.206 213.136 266.607 218.476 264.503 224.009V224.009Z" fill="url(#paint0_linear_6_91)"/>
<path d="M238.33 210.287C237.055 208.287 235.646 206.372 234.114 204.554C233.903 204.294 233.614 204.012 233.27 204.077C232.926 204.142 232.749 204.587 232.549 204.913C231.739 206.226 229.631 205.749 228.411 204.782C227.19 203.816 226.081 202.448 224.505 202.361C223.67 202.405 222.878 202.736 222.269 203.296C221.66 203.857 221.273 204.61 221.177 205.423C221.029 207.068 221.372 208.72 222.164 210.178C222.771 211.571 223.464 212.927 224.239 214.238C225.213 215.979 226.498 217.534 228.034 218.83C229.544 219.979 231.277 220.817 233.126 221.295C234.916 221.866 236.823 221.989 238.674 221.653C239.595 221.478 240.461 221.092 241.199 220.526C241.938 219.959 242.529 219.23 242.923 218.396C244.487 214.651 239.983 212.946 238.33 210.287Z" fill="#F3C091"/>
<path d="M281.467 384.259C281.425 384.859 281.508 385.461 281.711 386.028C282.322 387.396 284.219 387.765 285.661 387.299C286.38 387.071 287.041 386.695 287.6 386.197C288.159 385.699 288.602 385.09 288.901 384.411C289.378 383.108 289.538 381.714 289.367 380.34C289.274 379.016 289.093 377.699 288.823 376.399C288.781 375.927 288.639 375.469 288.406 375.054C288.173 374.639 287.854 374.276 287.47 373.989C285.706 373.012 282.399 375.139 281.734 376.811C280.89 378.885 281.489 382.055 281.467 384.259Z" fill="#FFCD90"/>
<path d="M287.647 384.118C287.127 384.606 286.541 385.022 285.905 385.355C285.051 385.663 284.134 385.764 283.231 385.648C282.503 385.473 281.741 385.473 281.012 385.648C280.599 385.871 280.224 386.157 279.903 386.495C279.128 387.118 278.292 387.664 277.406 388.124L273.723 390.11C272.622 390.669 271.59 391.35 270.65 392.14C270.084 392.662 269.596 393.226 269.03 393.801C268.754 394.021 268.525 394.29 268.353 394.594C268.251 394.884 268.238 395.196 268.314 395.493C268.391 395.79 268.555 396.059 268.786 396.266C269.263 396.664 269.842 396.927 270.461 397.026C271.188 397.192 271.934 397.262 272.68 397.232C273.745 397.159 274.805 397.022 275.853 396.82C278.214 396.542 280.552 396.11 282.854 395.528C285.162 394.844 287.414 394.008 289.666 393.172C290.48 392.939 291.22 392.51 291.819 391.923C292.187 391.352 292.417 390.705 292.49 390.033C292.563 389.362 292.478 388.682 292.24 388.048C292.02 387.133 291.738 386.234 291.397 385.355C291.064 384.498 290.532 383.553 289.611 383.39C289.294 383.362 288.974 383.397 288.671 383.492C288.368 383.587 288.088 383.741 287.847 383.944L287.647 384.118Z" fill="#2E2E3F"/>
<path d="M266.733 316.667C268.457 334.103 271.479 351.393 275.775 368.398C276.441 371.025 277.185 373.739 278.915 375.856C280.646 377.973 283.675 379.308 286.26 378.331C287.311 377.845 288.217 377.104 288.892 376.178C289.568 375.253 289.991 374.174 290.121 373.044C290.369 370.786 290.249 368.503 289.766 366.281C287.048 347.988 288.579 329.369 291.131 311.033C291.812 305.091 293.03 299.221 294.77 293.489C296.002 289.7 297.666 285.977 297.932 282.003C298.698 270.344 286.915 261.778 275.642 264.275C265.202 266.587 266.023 283.588 265.723 291.611C265.493 299.976 265.831 308.346 266.733 316.667Z" fill="#2E2E3F"/>
<path d="M266.733 316.667C268.457 334.103 271.479 351.393 275.775 368.398C276.441 371.025 277.185 373.739 278.915 375.856C280.646 377.973 283.675 379.308 286.26 378.331C287.311 377.845 288.217 377.104 288.892 376.178C289.568 375.253 289.991 374.174 290.121 373.044C290.369 370.786 290.249 368.503 289.766 366.281C287.048 347.988 288.579 329.369 291.131 311.033C291.812 305.091 293.03 299.221 294.77 293.489C296.002 289.7 297.666 285.977 297.932 282.003C298.698 270.344 286.915 261.778 275.642 264.275C265.202 266.587 266.023 283.588 265.723 291.611C265.493 299.976 265.831 308.346 266.733 316.667Z" fill="url(#paint1_linear_6_91)"/>
<path d="M331.528 393.519C331.752 394.078 332.088 394.587 332.515 395.017C333.625 395.994 335.533 395.538 336.654 394.529C337.201 394.017 337.632 393.4 337.921 392.715C338.209 392.031 338.348 391.295 338.329 390.555C338.192 389.17 337.725 387.835 336.964 386.658C336.303 385.495 335.562 384.378 334.745 383.314C334.51 382.909 334.191 382.557 333.809 382.278C333.427 382 332.99 381.802 332.526 381.697C330.496 381.545 328.421 384.845 328.554 386.636C328.643 388.894 330.563 391.511 331.528 393.519Z" fill="#FFCD90"/>
<path d="M338.751 391.359C338.251 391.087 337.641 391.131 336.842 391.804C336.304 392.374 335.726 392.908 335.112 393.4C334.058 394.062 332.682 394.019 331.528 394.485C330.84 394.831 330.205 395.27 329.642 395.788C327.481 397.45 325.542 399.373 323.872 401.509C322.763 403.04 320.178 405.57 322.031 407.48C322.929 408.403 324.46 408.338 325.725 408.012C327.027 407.645 328.299 407.184 329.531 406.634C332.415 405.439 335.289 404.245 338.085 402.877C339.168 402.427 340.149 401.77 340.97 400.945C341.598 400.189 342.018 399.289 342.191 398.329C342.364 397.37 342.283 396.383 341.957 395.462C341.628 394.912 341.233 394.402 340.781 393.943C340.104 393.128 339.572 391.815 338.751 391.359Z" fill="#2E2E3F"/>
<path d="M287.37 272.634C285.761 278.062 287.148 283.838 288.368 289.353C291.589 303.889 293.692 318.64 294.659 333.484C294.719 335.808 295.031 338.119 295.591 340.378C296.288 342.495 297.23 344.527 298.398 346.435C305.499 359.123 313.058 371.55 321.076 383.716C322.963 386.582 325.426 389.752 328.909 389.817C333.347 389.915 336.099 384.639 335.367 380.372C334.634 376.106 331.705 372.566 329.52 368.799C326.191 363.1 324.494 356.651 322.863 350.289C321.232 343.928 319.534 337.414 319.068 330.813C318.07 315.614 323.673 300.937 326.979 286.107C327.725 283.381 327.992 280.55 327.767 277.737C327.034 272.015 322.463 267.217 317.005 265.046C308.073 261.517 290.632 261.669 287.37 272.634Z" fill="#2E2E3F"/>
<path d="M287.37 272.634C285.761 278.062 287.148 283.838 288.368 289.353C291.589 303.889 293.692 318.64 294.659 333.484C294.719 335.808 295.031 338.119 295.591 340.378C296.288 342.495 297.23 344.527 298.398 346.435C305.499 359.123 313.058 371.55 321.076 383.716C322.963 386.582 325.426 389.752 328.909 389.817C333.347 389.915 336.099 384.639 335.367 380.372C334.634 376.106 331.705 372.566 329.52 368.799C326.191 363.1 324.494 356.651 322.863 350.289C321.232 343.928 319.534 337.414 319.068 330.813C318.07 315.614 323.673 300.937 326.979 286.107C327.725 283.381 327.992 280.55 327.767 277.737C327.034 272.015 322.463 267.217 317.005 265.046C308.073 261.517 290.632 261.669 287.37 272.634Z" fill="url(#paint2_linear_6_91)"/>
<path d="M291.852 190.007C288.468 195.381 286.449 201.45 284.463 207.442C282.932 212.056 281.401 216.681 280.28 221.414C278.239 230.023 277.562 238.925 275.065 247.415C272.78 255.21 268.952 263.276 271.282 271.06C272.245 274.007 273.837 276.719 275.953 279.018C280.506 284.079 286.443 287.761 293.064 289.629C299.685 291.496 306.713 291.472 313.321 289.559C315.881 288.814 318.307 287.682 320.511 286.205C326.347 282.177 329.597 275.348 331.073 268.531C332.549 261.713 332.504 254.635 333.159 247.676C334.268 235.821 337.419 224.161 337.597 212.262C337.774 200.364 334.268 187.575 324.804 180.149C312.733 170.748 298.753 179.064 291.852 190.007Z" fill="#68E1FD"/>
<path d="M291.852 190.007C288.468 195.381 286.449 201.45 284.463 207.442C282.932 212.056 281.401 216.681 280.28 221.414C278.239 230.023 277.562 238.925 275.065 247.415C272.78 255.21 268.952 263.276 271.282 271.06C272.245 274.007 273.837 276.719 275.953 279.018C280.506 284.079 286.443 287.761 293.064 289.629C299.685 291.496 306.713 291.472 313.321 289.559C315.881 288.814 318.307 287.682 320.511 286.205C326.347 282.177 329.597 275.348 331.073 268.531C332.549 261.713 332.504 254.635 333.159 247.676C334.268 235.821 337.419 224.161 337.597 212.262C337.774 200.364 334.268 187.575 324.804 180.149C312.733 170.748 298.753 179.064 291.852 190.007Z" fill="url(#paint3_linear_6_91)"/>
<path d="M295.347 150.012C294.293 153.606 293.483 157.384 294.082 161.086C294.681 164.788 296.911 168.414 300.462 169.771C301.926 170.346 303.635 170.585 304.667 171.747C305.518 172.986 305.851 174.497 305.599 175.97C305.517 177.453 305.358 178.932 305.122 180.399C304.93 181.214 304.893 182.057 305.011 182.885C305.199 183.598 305.587 184.245 306.129 184.755C306.672 185.265 307.349 185.617 308.084 185.773C309.562 186.073 311.101 185.882 312.456 185.23C316.539 183.461 319.113 179.324 320.222 175.09C321.332 170.856 321.254 166.405 321.609 162.063C321.915 159.618 322.034 157.154 321.964 154.691C321.757 152.013 320.955 149.41 319.613 147.067C318.272 144.723 316.423 142.694 314.198 141.121C311.002 138.874 304.112 136.019 300.295 138.396C298.953 139.232 298.465 140.774 297.965 142.163C297.022 144.758 296.113 147.385 295.347 150.012Z" fill="#F3C091"/>
<path d="M302.481 124.609C301.598 124.848 300.79 125.297 300.128 125.917C299.465 126.536 298.97 127.306 298.687 128.159C298.138 129.875 298.069 131.705 298.487 133.457C299.241 137.319 301.207 140.856 304.112 143.575C305.921 145.257 308.084 146.636 309.349 148.72C310.098 150.064 310.566 151.54 310.725 153.063C310.791 153.53 310.891 154.073 311.324 154.29C311.757 154.507 312.433 154.116 312.899 153.714C313.765 152.9 314.863 152.042 316.028 152.336C317.193 152.629 317.826 154.203 317.826 155.506C317.891 156.27 317.757 157.038 317.435 157.737C317.112 158.436 316.613 159.043 315.984 159.501C315.584 159.74 315.063 159.935 314.941 160.369C314.752 161.01 315.485 161.455 315.873 162.041C316.264 162.799 316.437 163.648 316.372 164.495C316.342 164.913 316.43 165.331 316.626 165.704C316.821 166.077 317.117 166.391 317.482 166.612C317.811 166.695 318.155 166.703 318.488 166.635C318.821 166.567 319.133 166.425 319.401 166.221C321.62 164.886 322.796 162.454 324.671 160.717C325.881 159.631 327.367 158.763 328.632 157.688C329.988 156.56 331.064 155.145 331.777 153.55C332.49 151.955 332.823 150.221 332.748 148.482C332.641 146.742 332.056 145.063 331.057 143.621C330.057 142.179 328.679 141.027 327.068 140.285C325.293 139.525 323.284 139.33 321.631 138.364C319.346 137.028 318.147 134.52 316.783 132.295C316.139 131.087 315.242 130.025 314.15 129.18C313.058 128.334 311.797 127.724 310.447 127.388C307.629 126.671 305.599 123.957 302.481 124.609Z" fill="#452D21"/>
<path d="M329.919 185.578C329.919 185.578 345.186 204.989 350.134 245.287C355.083 285.586 349.213 298.733 349.213 298.733C349.213 298.733 338.673 304.063 336.21 298.244C333.747 292.425 333.181 239.49 324.005 228.047C314.83 216.605 321.542 188.042 329.919 185.578Z" fill="#68E1FD"/>
<path d="M329.919 185.578C329.919 185.578 345.186 204.989 350.134 245.287C355.083 285.586 349.213 298.733 349.213 298.733C349.213 298.733 338.673 304.063 336.21 298.244C333.747 292.425 333.181 239.49 324.005 228.047C314.83 216.605 321.542 188.042 329.919 185.578Z" fill="url(#paint4_linear_6_91)"/>
<path d="M335.001 309.177C334.712 309.991 334.646 311.207 335.511 311.348C336.376 311.489 337.109 310.718 337.586 311.25C337.721 311.437 337.787 311.662 337.774 311.891C337.912 314.217 337.458 316.541 336.454 318.654C336.098 319.186 335.948 319.826 336.032 320.456C336.354 321.542 337.952 321.661 339.072 321.314C343.122 320.087 346.051 316.45 347.305 312.488C348.559 308.525 348.414 304.28 347.882 300.166C347.858 298.853 347.381 297.586 346.528 296.572C344.531 294.673 340.903 295.66 339.649 297.767C337.608 301.208 336.332 305.431 335.001 309.177Z" fill="#F3C091"/>
<path d="M144.189 125.325C168.675 125.325 188.524 105.902 188.524 81.9434C188.524 57.9843 168.675 38.5616 144.189 38.5616C119.703 38.5616 99.8529 57.9843 99.8529 81.9434C99.8529 105.902 119.703 125.325 144.189 125.325Z" fill="#68E1FD"/>
<path d="M288.679 86.7635C313.165 86.7635 333.015 67.3409 333.015 43.3818C333.015 19.4227 313.165 0 288.679 0C264.193 0 244.343 19.4227 244.343 43.3818C244.343 67.3409 264.193 86.7635 288.679 86.7635Z" fill="#68E1FD"/>
<path d="M443.843 174.32C468.329 174.32 488.178 154.897 488.178 130.938C488.178 106.979 468.329 87.5561 443.843 87.5561C419.357 87.5561 399.507 106.979 399.507 130.938C399.507 154.897 419.357 174.32 443.843 174.32Z" fill="#68E1FD"/>
<path d="M135.157 310.078C159.643 310.078 179.493 290.655 179.493 266.696C179.493 242.737 159.643 223.314 135.157 223.314C110.671 223.314 90.8215 242.737 90.8215 266.696C90.8215 290.655 110.671 310.078 135.157 310.078Z" fill="#68E1FD"/>
<path d="M439.183 328.881C463.669 328.881 483.519 309.458 483.519 285.499C483.519 261.54 463.669 242.117 439.183 242.117C414.697 242.117 394.847 261.54 394.847 285.499C394.847 309.458 414.697 328.881 439.183 328.881Z" fill="#68E1FD"/>
<path d="M429.22 113.524C429.22 112.634 429.164 111.635 429.22 110.647C429.419 107.966 430.828 106.305 433.558 106.207C438.817 106.044 444.098 106.033 449.357 106.207C452.175 106.283 453.617 107.988 453.795 110.767C453.85 111.7 453.795 112.634 453.795 113.872H462.26C463.081 113.872 463.903 113.872 464.724 113.872C466.843 113.969 467.775 114.795 467.786 116.814C467.786 122.915 467.786 129.005 467.786 135.107C467.786 135.682 467.708 136.507 467.331 136.779C465.766 137.864 466.088 139.46 466.088 140.958C466.088 143.705 466.088 146.451 466.088 149.198C466.088 151.467 465.134 152.455 462.837 152.455C448.658 152.498 434.486 152.498 420.321 152.455C417.903 152.455 416.993 151.489 416.993 149.1C416.993 145.844 416.993 142.673 416.993 139.46C416.836 138.731 416.571 138.029 416.205 137.376C415.777 136.573 415.484 135.708 415.34 134.814C415.262 128.919 415.34 123.024 415.34 117.129C415.34 114.729 416.216 113.872 418.735 113.872C422.063 113.872 425.392 113.872 428.798 113.807C428.787 113.807 428.909 113.687 429.22 113.524ZM445.219 138.874C445.452 138.92 445.69 138.945 445.929 138.95L464.668 136.475C465.933 136.312 466.133 135.53 466.133 134.477C466.133 128.843 466.133 123.219 466.133 117.595C466.133 116.173 465.711 115.554 464.136 115.554C449.076 115.598 434.013 115.598 418.946 115.554C417.392 115.554 416.926 116.152 416.937 117.574C416.993 123.208 416.937 128.832 416.937 134.455C416.89 134.717 416.904 134.986 416.978 135.242C417.052 135.499 417.184 135.735 417.364 135.934C417.544 136.134 417.768 136.29 418.019 136.393C418.27 136.496 418.541 136.543 418.812 136.529C422.607 136.985 426.401 137.614 430.196 138.06C432.737 138.396 435.277 138.7 437.796 139.015C438.517 135.758 439.039 135.28 441.635 135.302C444.042 135.324 444.553 135.823 445.219 138.874ZM464.291 138.233C458.555 139.015 453.196 139.829 447.726 140.405C445.94 140.611 444.83 140.882 444.919 143.021C444.997 144.714 443.71 145.474 442.068 145.529C440.426 145.583 438.306 145.583 438.317 143.683C438.317 140.372 436.154 140.426 433.957 140.22C433.003 140.111 432.06 139.97 431.106 139.84L418.735 138.244C418.735 141.707 418.846 144.91 418.735 148.102C418.646 150.11 419.278 150.74 421.386 150.729C433.302 150.631 445.219 150.675 457.135 150.675C458.987 150.675 460.829 150.675 462.682 150.675C463.792 150.675 464.346 150.305 464.335 149.176C464.28 145.67 464.291 142.131 464.291 138.244V138.233ZM441.513 107.836C439.116 107.836 436.72 107.836 434.323 107.836C433.686 107.885 433.07 108.084 432.528 108.418C431.987 108.751 431.537 109.208 431.216 109.75C430.895 110.291 430.713 110.901 430.686 111.526C430.659 112.152 430.788 112.774 431.061 113.34C431.16 113.466 431.286 113.569 431.429 113.642C431.573 113.715 431.732 113.756 431.893 113.763C432.052 113.753 432.206 113.707 432.343 113.628C432.48 113.548 432.596 113.439 432.681 113.307C432.779 112.92 432.809 112.52 432.77 112.124C432.848 109.529 432.848 109.529 435.555 109.529C439.05 109.529 442.545 109.529 446.028 109.529C447.316 109.529 448.78 109.366 449.79 109.92C450.344 110.224 450.089 111.874 450.289 112.906C450.356 113.22 450.666 113.665 450.932 113.72C451.122 113.748 451.315 113.728 451.494 113.661C451.673 113.595 451.831 113.484 451.953 113.34C453.24 111.169 451.421 107.912 448.913 107.836C446.406 107.76 443.987 107.846 441.513 107.846V107.836ZM448.414 111.331H434.612V113.72H448.414V111.331ZM439.804 140.318C439.804 140.774 439.804 141.24 439.804 141.707C439.727 142.977 439.893 143.879 441.613 143.879C443.332 143.879 443.299 142.956 443.266 141.805C443.233 140.654 443.266 139.547 443.266 138.418C443.266 137.289 442.567 136.779 441.59 137.028C440.873 137.261 440.269 137.744 439.893 138.385C439.571 138.896 439.804 139.677 439.804 140.35V140.318Z" fill="white"/>
<path d="M295.946 46.9861L278.816 61.7398C279.503 64.9315 280.191 67.9604 280.757 71.0111C280.955 71.8698 280.881 72.7671 280.546 73.584C280.09 74.4589 279.369 75.1753 278.483 75.6358C278.183 75.777 277.096 74.8108 276.674 74.1485C275.099 71.6733 273.656 69.1221 272.236 66.6251C265.868 67.6347 264.226 66.0606 265.979 60.4804C263.449 59.0366 260.853 57.6252 258.345 56.1379C257.651 55.5755 257.033 54.9299 256.503 54.2164C257.458 53.4998 258.467 52.1102 259.355 52.1862C262.683 52.4685 265.901 53.2719 269.174 53.8147C269.629 53.9397 270.071 54.1069 270.494 54.3141C275.576 48.6796 280.646 43.0561 285.916 37.1937L276.053 31.5701C273.468 30.1045 270.894 28.6172 268.286 27.2276C267.066 26.5654 266.777 25.5666 267.82 24.8175C269.078 23.7442 270.613 23.0306 272.258 22.7548C279.635 22.4271 286.935 24.3464 293.15 28.2481C294.959 26.5762 296.656 24.9912 298.409 23.3953C299.899 22.0561 301.666 21.046 303.59 20.4335C305.514 19.821 307.55 19.6204 309.56 19.8453C312.677 20.095 313.543 20.9852 313.754 24.101C313.925 26.3665 313.552 28.6399 312.666 30.7396C311.78 32.8394 310.405 34.7075 308.65 36.1949C307.463 37.2805 306.22 38.3662 305.499 38.9741C307.208 44.2177 308.994 49.0596 310.314 54.0209C310.762 56.394 310.87 58.8164 310.636 61.2187C310.529 62.2303 310.107 63.1854 309.427 63.9545C307.896 65.7675 306.964 65.6372 305.754 63.5962C302.537 58.1789 299.352 52.729 295.946 46.9861ZM311.812 25.5557C311.657 23.5039 312.034 21.7126 309.183 21.6149C307.094 21.4731 305.002 21.815 303.074 22.6129C301.146 23.4108 299.438 24.6422 298.088 26.2071C289.977 35.2721 281.8 44.2937 273.801 53.4564C271.544 56.1683 269.493 59.0384 267.665 62.0438C267.457 62.4639 267.36 62.9279 267.381 63.3942C267.402 63.8604 267.542 64.3141 267.787 64.7144C268.208 64.9423 268.678 65.0682 269.159 65.0814C269.64 65.0946 270.117 64.9948 270.55 64.7904C272.613 63.7974 274.555 62.5812 276.341 61.1644C286.83 52.3708 297.259 43.5157 307.629 34.599C308.964 33.4857 310.03 32.0979 310.753 30.5347C311.476 28.9715 311.838 27.2714 311.812 25.5557V25.5557ZM307.64 63.0534C310.436 59.308 307.64 46.2044 303.202 40.9608L297.466 45.7159L307.64 63.0534ZM292.163 29.9091C286.211 26.1841 279.254 24.2931 272.192 24.481C271.128 24.6824 270.093 25.0067 269.107 25.4472L287.148 35.6738L292.163 29.9091ZM269.274 55.834C265.974 54.1737 262.227 53.5627 258.556 54.0861L267.044 58.8954L269.274 55.834ZM278.327 73.204C279.078 69.8324 278.499 66.3078 276.707 63.3357L273.712 65.5069L278.327 73.204Z" fill="white"/>
<path d="M308.894 29.2686C308.927 29.6382 308.87 30.0102 308.728 30.3542C308.321 30.8972 307.86 31.3991 307.352 31.8524C307.094 31.2788 306.944 30.6648 306.908 30.0394C307.307 27.4447 305.876 26.0985 303.147 26.5111C302.546 26.4923 301.952 26.3711 301.394 26.1528C301.838 25.6643 302.182 24.9586 302.725 24.7524C303.444 24.5137 304.21 24.4498 304.96 24.5663C305.709 24.6827 306.418 24.9759 307.025 25.4206C307.633 25.8653 308.12 26.4481 308.446 27.1185C308.772 27.789 308.925 28.5269 308.894 29.2686V29.2686Z" fill="white"/>
<path d="M165.258 85.3305C173.124 86.4162 173.601 86.9155 173.601 94.5475C173.601 95.8286 173.601 97.1096 173.601 98.3798C173.402 101.886 171.449 103.743 167.865 103.884C167.133 103.884 166.412 103.884 165.502 103.884C165.391 104.394 165.302 104.839 165.203 105.274C164.415 108.65 162.784 110.029 159.233 110.039C148.649 110.039 138.06 110.039 127.468 110.039C123.585 110.039 122.22 108.672 121.189 104.112C120.988 104.01 120.77 103.943 120.545 103.917C115.386 104.372 112.645 102.125 113.012 96.3171C113.1 94.9709 113.012 93.6139 113.012 92.2568C113.012 87.5344 114.809 85.7431 119.58 85.6236C120.057 85.6236 120.534 85.6236 121.333 85.5368C121.333 80.3041 121.333 75.1582 121.333 70.0123C121.333 69.5672 120.723 68.9267 120.223 68.7204C119.309 68.2678 118.547 67.5678 118.028 66.7036C117.509 65.8395 117.254 64.8476 117.294 63.8459C117.294 62.174 117.294 60.5022 117.294 58.8194C117.383 54.8677 119.225 53.0439 123.33 52.9462C126.581 52.8702 129.843 52.9462 133.105 52.9462C134.347 52.9462 135.324 52.8593 135.734 51.448C135.892 51.0801 136.139 50.7557 136.455 50.5035C139.429 47.3878 148.782 48.3323 151.19 51.7954C151.442 52.1072 151.758 52.3646 152.117 52.5514C152.476 52.7382 152.87 52.8504 153.275 52.881C156.604 53.0005 159.932 52.881 163.261 52.957C167.477 53.0439 169.285 54.8786 169.352 59.0257C169.515 60.8349 169.462 62.6564 169.197 64.4539C168.855 65.965 168.008 67.3214 166.789 68.3078C166.284 68.5833 165.869 68.9942 165.594 69.4923C165.319 69.9903 165.194 70.5549 165.236 71.1196C165.291 75.8095 165.258 80.5103 165.258 85.3305ZM123.618 69.3283C123.552 70.1751 123.474 70.7939 123.474 71.4236C123.474 82.1062 123.474 92.7888 123.474 103.471C123.474 107.141 124.451 108.042 128.345 108.042H158.157C162.262 108.042 163.139 107.173 163.139 103.091C163.139 92.6621 163.139 82.222 163.139 71.771V69.3501H158.956C158.823 70.8652 158.852 72.3898 159.045 73.8988C159.244 74.8216 160.765 75.5924 160.753 76.4175C160.742 77.2426 159.555 78.0459 158.889 78.8927C158.656 79.2076 158.623 79.6527 158.412 79.9784C158.142 80.4016 157.768 80.7518 157.324 80.997C156.88 81.2422 156.38 81.3747 155.871 81.3823C155.361 81.3898 154.857 81.2722 154.406 81.0403C153.954 80.8083 153.57 80.4693 153.286 80.0544C152.454 78.7733 151.711 77.438 150.846 75.9941C154.174 74.6262 152.144 71.7819 152.676 69.3935H134.037C134.369 71.9121 132.65 74.7348 135.889 76.1352C135.266 77.167 134.557 78.1473 133.77 79.0664C132.894 79.9458 131.762 81.2377 130.764 81.2377C129.765 81.2377 128.722 79.8698 127.823 78.9904C127.479 78.6648 127.602 77.6768 127.302 77.5683C123.63 76.2547 126.492 75.7336 127.513 75.0496V69.3283H123.618ZM152.465 55.1066H134.037V67.0485H152.51L152.465 55.1066ZM127.491 54.922C124.783 55.4323 121.122 53.4564 119.957 56.583C118.932 59.5656 118.995 62.8034 120.135 65.7458C121.311 68.4707 124.872 66.8314 127.491 67.0919V54.922ZM159.067 67.3633C161.83 66.5274 165.513 68.601 166.6 65.5286C167.607 62.5404 167.549 59.3064 166.434 56.3551C165.325 53.5976 161.685 55.3454 159.067 54.9546V67.3633ZM121.222 87.7298C116.007 87.2847 115.109 88.0989 115.097 93.0168V96.5994C115.097 101.387 116.274 102.375 121.222 101.637V87.7298ZM165.258 87.7298V101.843C170.706 102.169 171.504 101.43 171.504 96.4148V93.0602C171.504 88.0989 170.65 87.3498 165.258 87.6972V87.7298ZM131.818 55.226L131.163 54.77C130.675 55.2586 129.787 55.7362 129.765 56.2356C129.632 59.4165 129.654 62.5974 129.765 65.7783C129.765 66.2234 130.364 66.6577 130.697 67.0919C131.074 66.6251 131.807 66.1692 131.807 65.6915C131.873 62.25 131.818 58.7109 131.818 55.226ZM156.881 55.1609L156.227 54.7483C155.761 55.2694 154.917 55.7797 154.895 56.3116C154.773 59.4925 154.795 62.6734 154.895 65.8543C154.895 66.2777 155.561 66.6903 155.905 67.1028C156.26 66.6903 156.903 66.2777 156.915 65.8543C156.926 62.25 156.892 58.7217 156.892 55.1609H156.881ZM137.365 52.6422H149.204C146.907 50.0801 139.817 50.0584 137.365 52.6422ZM129.698 72.1835C129.609 72.7265 129.609 73.2799 129.698 73.8228C129.967 74.3495 130.307 74.8387 130.708 75.2776C131.17 74.8541 131.546 74.3496 131.818 73.7903C131.995 73.0219 131.995 72.2245 131.818 71.4562C131.558 70.697 131.212 69.9687 130.786 69.2849C130.431 70.0014 130.054 70.7179 129.676 71.4562C129.644 71.6842 129.655 71.9161 129.71 72.1401L129.698 72.1835ZM156.892 72.4441C156.976 71.9007 156.976 71.3482 156.892 70.8048C156.628 70.2655 156.288 69.765 155.883 69.3175C155.528 69.7952 154.962 70.2294 154.84 70.7614C154.663 71.614 154.663 72.4925 154.84 73.3452C155.078 74.03 155.41 74.68 155.827 75.2776C156.182 74.6371 156.582 74.0074 156.937 73.3452C156.987 73.0312 156.976 72.7105 156.903 72.4007L156.892 72.4441Z" fill="white"/>
<path d="M143.301 105.957C138.985 105.957 134.669 105.871 130.364 105.957C128.145 106.023 127.546 105.241 127.613 103.178C127.746 98.7272 127.69 94.2652 127.613 89.8033C127.613 88.1857 128.145 87.5126 129.832 87.5126C138.782 87.5705 147.735 87.5705 156.693 87.5126C158.412 87.5126 158.912 88.1966 158.912 89.8033C158.845 94.4281 158.823 99.042 158.912 103.656C158.912 105.545 158.08 105.957 156.404 105.947C152.088 105.925 147.695 105.957 143.301 105.957ZM156.404 89.7382H130.198C130.261 91.671 131.026 93.5185 132.356 94.949C133.686 96.3796 135.493 97.2996 137.454 97.5438C139.262 97.7393 141.67 98.9552 142.791 96.1108C143.12 95.991 143.482 95.991 143.811 96.1108C144.921 98.966 147.34 97.7393 149.148 97.5438C151.109 97.2996 152.916 96.3796 154.246 94.949C155.576 93.5185 156.341 91.671 156.404 89.7382V89.7382ZM156.815 95.1663C153.63 98.8249 149.869 99.9105 145.631 99.8888C145.154 99.8888 144.743 100.768 144.189 100.974C143.614 101.17 142.988 101.17 142.413 100.974C141.659 100.714 140.993 99.8888 140.261 99.8888C137.188 99.7042 134.281 99.1614 131.84 97.1747C131.207 96.6645 130.608 96.0891 129.854 95.4703V103.645H156.815V95.1663Z" fill="white"/>
<path d="M136.833 296.985C131.851 296.956 126.954 295.715 122.585 293.373C118.215 291.03 114.51 287.661 111.804 283.568C109.097 279.476 107.474 274.788 107.08 269.928C106.687 265.069 107.536 260.19 109.55 255.731C109.713 255.304 109.917 254.893 110.16 254.504C111.707 252.47 112.398 249.933 112.091 247.415C111.414 240.901 118.803 236.559 124.894 239.447C125.899 239.905 127.034 240.016 128.112 239.761C132.329 238.501 136.779 238.17 141.143 238.794C145.506 239.417 149.674 240.979 153.347 243.366C157.019 245.754 160.106 248.908 162.384 252.602C164.662 256.296 166.076 260.438 166.523 264.731C167.349 272.086 165.257 279.472 160.68 285.362C156.103 291.253 149.39 295.2 141.925 296.388C140.239 296.746 138.53 296.8 136.833 296.985ZM139.052 282.372C138.708 285.727 137.942 288.723 134.259 290.297C133.593 290.58 133.371 292.61 133.56 293.739C133.648 294.282 135.157 294.933 136.034 294.966C137.966 295.041 139.9 294.91 141.803 294.575C145.781 293.896 149.556 292.367 152.861 290.096C156.165 287.825 158.917 284.869 160.92 281.439L157.591 279.984C155.727 282.752 153.952 285.325 152.221 287.942C151.19 289.494 150.28 289.429 149.259 287.942C148.238 286.454 147.04 284.685 145.742 282.926C145.01 283.784 144.455 284.5 143.856 285.162C142.402 286.758 140.816 286.639 139.762 284.772C139.434 284.015 139.177 283.23 138.996 282.427C138.681 280.666 138.459 278.89 138.33 277.107C138.33 275.359 137.554 274.263 135.845 274.089C133.637 273.822 131.409 273.753 129.188 273.883C125.982 274.154 123.807 273.09 122.997 270.387C122.187 267.684 123.197 266.338 126.503 264.742C129.511 263.398 132.333 261.687 134.902 259.65C137.543 257.425 137.476 255.536 135.313 252.876C132.45 249.358 131.884 245.678 133.848 241.618C133.947 241.263 134.011 240.899 134.037 240.532L127.89 241.857C129.034 243.247 129.703 244.954 129.802 246.736C129.902 248.518 129.427 250.286 128.445 251.79C126.603 255.047 124.584 258.206 122.52 261.333C121.178 263.352 120.578 263.32 119.192 261.333C117.294 258.619 115.486 255.84 113.478 252.832C112.823 254.081 111.958 255.004 111.836 256.089C111.148 262.049 111.192 268.129 114.121 273.459C117.794 280.158 121.155 280.701 126.825 278.269C127.391 278.03 127.99 277.856 128.556 277.606C132.727 275.859 135.712 276.901 137.831 280.809C138.186 281.353 138.575 281.875 138.996 282.372H139.052ZM161.774 279.571C163.77 275.895 164.804 271.792 164.781 267.629C164.714 263.841 163.117 261.398 159.378 260.291C157.669 259.78 155.705 260.16 153.83 259.911C151.251 259.683 148.706 259.177 146.241 258.402C143.567 257.316 142.413 254.168 143.046 251.226C143.723 248.066 145.143 247.003 148.715 246.59C150.016 246.275 151.278 245.819 152.477 245.233C148.1 242.238 142.905 240.601 137.565 240.532C137.066 240.532 136.367 241.14 136.078 241.618C135.081 243.131 134.616 244.921 134.755 246.716C134.893 248.511 135.626 250.213 136.844 251.562C139.717 255.156 139.617 258.217 136.078 261.181C133.438 263.352 130.142 264.915 127.025 266.555C125.715 267.25 124.34 267.64 124.806 269.453C124.864 269.851 125.004 270.232 125.219 270.575C125.434 270.917 125.717 271.213 126.053 271.443C126.389 271.674 126.769 271.835 127.171 271.917C127.573 271.999 127.987 271.999 128.389 271.918C130.622 271.652 132.88 271.652 135.113 271.918C139.307 272.526 140.194 273.904 140.305 278.073C140.508 280.224 140.853 282.36 141.337 284.468C144.821 281.428 144.81 281.428 143.201 278.193C142.902 277.574 142.613 276.944 142.38 276.304C141.612 274.245 141.686 271.975 142.587 269.968C143.489 267.961 145.148 266.373 147.218 265.534C149.32 264.674 151.677 264.627 153.813 265.403C155.949 266.179 157.704 267.72 158.723 269.714C160.176 272.547 159.677 275.283 158.457 278.084L161.774 279.571ZM131.263 294.293C131.019 291.524 131.429 289.266 134.059 287.898C136.688 286.53 137.287 284.261 135.967 281.569C134.647 278.877 132.317 278.019 129.643 279.126C128.534 279.604 127.369 280.093 126.204 280.505C121.122 282.318 117.239 281.363 114.121 277.053C112.689 274.914 111.569 272.59 110.793 270.148C110.202 268.032 109.772 265.877 109.506 263.7C106.676 276.032 115.863 291.622 131.263 294.293ZM154.285 246.525C152.355 247.274 150.712 248.338 148.993 248.468C146.53 248.664 145.265 249.651 144.899 251.931C144.677 253.023 144.869 254.155 145.439 255.118C146.009 256.081 146.917 256.808 147.994 257.164C149.509 257.738 151.118 258.036 152.743 258.043C156.415 257.739 159.977 257.555 163.205 259.911C161.824 254.601 158.688 249.887 154.285 246.503V246.525ZM150.291 286.313L151.234 286.465C153.275 282.741 155.372 279.05 157.303 275.272C157.667 274.352 157.745 273.347 157.525 272.385C157.321 271.097 156.723 269.901 155.81 268.953C154.897 268.005 153.711 267.35 152.41 267.076C151.212 266.711 149.93 266.701 148.726 267.047C147.522 267.393 146.449 268.079 145.642 269.019C144.677 269.93 144.046 271.126 143.845 272.423C143.645 273.72 143.886 275.046 144.533 276.195C146.241 279.615 148.338 282.926 150.291 286.291V286.313ZM120.434 259.998H121.322C123.274 256.556 125.371 253.191 127.113 249.662C127.786 248.311 127.937 246.767 127.539 245.315C127.142 243.864 126.222 242.601 124.95 241.759C123.715 240.879 122.22 240.419 120.693 240.45C119.165 240.482 117.691 241.002 116.495 241.933C115.249 242.815 114.371 244.109 114.022 245.575C113.673 247.041 113.878 248.582 114.598 249.912C116.373 253.321 118.504 256.643 120.434 259.998Z" fill="white"/>
<path d="M146.785 272.482C146.845 271.448 147.319 270.479 148.104 269.784C148.888 269.09 149.921 268.725 150.979 268.769C151.994 268.831 152.945 269.279 153.627 270.018C154.309 270.756 154.669 271.726 154.629 272.721C154.623 273.234 154.509 273.739 154.295 274.207C154.081 274.675 153.77 275.094 153.383 275.44C152.996 275.785 152.54 276.048 152.045 276.214C151.549 276.379 151.024 276.443 150.502 276.401C149.485 276.343 148.531 275.902 147.839 275.172C147.146 274.442 146.769 273.478 146.785 272.482V272.482ZM150.801 269.877C149.869 271.169 148.904 271.918 148.982 272.558C149.059 273.199 150.091 273.85 150.712 274.491C151.367 273.883 152.443 273.329 152.554 272.634C152.665 271.939 151.7 271.201 150.801 269.877Z" fill="white"/>
<path d="M120.856 250.129C119.837 250.102 118.865 249.707 118.127 249.019C117.389 248.331 116.938 247.4 116.862 246.405C116.853 245.895 116.947 245.387 117.14 244.912C117.332 244.437 117.618 244.004 117.982 243.638C118.346 243.272 118.781 242.98 119.26 242.778C119.74 242.577 120.256 242.47 120.778 242.465C121.283 242.45 121.786 242.534 122.257 242.711C122.729 242.888 123.16 243.155 123.525 243.497C123.891 243.838 124.183 244.247 124.386 244.699C124.588 245.152 124.697 245.64 124.706 246.134C124.723 246.644 124.638 247.153 124.453 247.631C124.269 248.108 123.99 248.545 123.632 248.917C123.274 249.288 122.844 249.587 122.368 249.795C121.891 250.003 121.377 250.117 120.856 250.129V250.129ZM120.922 243.518C119.979 244.766 119.003 245.504 119.058 246.167C119.114 246.829 120.168 247.969 120.756 247.969C121.191 247.874 121.594 247.67 121.925 247.377C122.256 247.084 122.503 246.712 122.642 246.297C122.742 245.646 121.832 244.842 120.922 243.55V243.518Z" fill="white"/>
<path d="M441.369 315.202C435.588 315.217 429.934 313.554 425.12 310.423C420.306 307.292 416.55 302.834 414.326 297.614C412.102 292.393 411.511 286.645 412.628 281.095C413.745 275.546 416.519 270.446 420.599 266.439C424.679 262.433 429.882 259.702 435.55 258.59C441.217 257.479 447.094 258.037 452.437 260.195C457.78 262.353 462.348 266.013 465.565 270.713C468.781 275.412 470.5 280.94 470.504 286.595C470.492 294.162 467.422 301.417 461.964 306.776C456.505 312.136 449.101 315.165 441.369 315.202ZM413.964 286.617C413.962 291.895 415.558 297.055 418.551 301.446C421.544 305.837 425.799 309.262 430.78 311.288C435.76 313.314 441.243 313.851 446.535 312.83C451.827 311.81 456.692 309.278 460.514 305.554C464.337 301.831 466.946 297.082 468.013 291.908C469.079 286.735 468.555 281.368 466.507 276.485C464.458 271.603 460.977 267.424 456.503 264.476C452.029 261.528 446.762 259.943 441.369 259.922C434.122 259.924 427.172 262.734 422.037 267.736C416.902 272.739 413.999 279.527 413.964 286.617V286.617Z" fill="white"/>
<path d="M441.369 262.853C446.17 262.874 450.857 264.287 454.839 266.913C458.82 269.539 461.917 273.26 463.739 277.607C465.561 281.954 466.025 286.731 465.074 291.337C464.123 295.942 461.799 300.168 458.396 303.482C454.992 306.795 450.662 309.048 445.95 309.955C441.239 310.863 436.359 310.384 431.926 308.58C427.493 306.776 423.705 303.727 421.042 299.818C418.378 295.909 416.957 291.315 416.96 286.617C416.955 283.485 417.584 280.383 418.811 277.49C420.038 274.597 421.837 271.97 424.106 269.761C426.375 267.552 429.069 265.804 432.032 264.619C434.994 263.433 438.168 262.833 441.369 262.853V262.853ZM463.681 286.661C463.687 282.328 462.38 278.092 459.925 274.486C457.47 270.881 453.978 268.069 449.889 266.407C445.8 264.745 441.3 264.306 436.957 265.148C432.613 265.989 428.623 268.072 425.49 271.133C422.357 274.194 420.222 278.096 419.356 282.344C418.49 286.593 418.931 290.997 420.624 295C422.316 299.003 425.185 302.425 428.866 304.833C432.547 307.24 436.875 308.525 441.302 308.525C447.209 308.469 452.858 306.146 457.035 302.058C461.211 297.969 463.581 292.441 463.636 286.661H463.681Z" fill="white"/>
<path d="M427.034 301.241C426.967 300.387 427.046 299.529 427.267 298.7C429.486 294.803 431.927 291.036 433.924 287.062C435.566 283.725 438.332 281.042 441.757 279.463C445.751 277.53 449.523 275.12 453.451 273.036C454.109 272.817 454.798 272.699 455.493 272.689C455.5 273.368 455.388 274.044 455.16 274.686C452.245 279.803 449.287 284.891 446.284 289.95C445.913 290.591 445.383 291.129 444.741 291.513C439.427 294.531 434.09 297.495 428.754 300.47C428.432 300.622 428.055 300.752 427.034 301.241ZM430.717 296.583L431.084 296.941L442.977 290.232C441.147 288.311 439.46 286.552 437.663 284.652C435.289 288.745 433.003 292.664 430.717 296.583V296.583ZM451.798 276.673L451.432 276.325L439.593 282.948L444.852 288.56L451.798 276.673Z" fill="white"/>
<path d="M440.315 269.28C440.243 268.921 440.243 268.553 440.315 268.194C440.6 267.686 440.934 267.206 441.313 266.761C441.669 267.161 441.947 267.62 442.134 268.118C442.284 268.999 442.284 269.897 442.134 270.778C442.045 271.299 441.502 271.733 441.158 272.211C440.828 271.789 440.552 271.33 440.337 270.843C440.256 270.325 440.248 269.799 440.315 269.28V269.28Z" fill="white"/>
<path d="M423.794 287.996L420.943 286.726C421.818 286.267 422.762 285.945 423.739 285.77C424.698 285.883 425.633 286.139 426.512 286.53L423.794 287.996Z" fill="white"/>
<path d="M458.899 287.551C458.748 287.578 458.594 287.578 458.444 287.551C457.623 287.258 456.813 286.943 455.992 286.628L458.455 285.716C458.599 285.673 458.754 285.673 458.899 285.716L461.573 286.639L459.121 287.92L458.899 287.551Z" fill="white"/>
<path d="M442.19 303.976C442.261 304.335 442.261 304.704 442.19 305.062C441.902 305.568 441.568 306.048 441.191 306.495C440.914 306.039 440.448 305.616 440.37 305.127C440.22 304.25 440.22 303.355 440.37 302.478C440.47 301.957 441.002 301.512 441.346 301.034C441.679 301.46 441.959 301.922 442.179 302.413C442.25 302.932 442.254 303.457 442.19 303.976V303.976Z" fill="white"/>
</g>
<defs>
<linearGradient id="paint0_linear_6_91" x1="301.56" y1="227.331" x2="266.942" y2="201.667" gradientUnits="userSpaceOnUse">
<stop offset="0.01"/>
<stop offset="0.13" stop-opacity="0.69"/>
<stop offset="1" stop-opacity="0"/>
</linearGradient>
<linearGradient id="paint1_linear_6_91" x1="7178" y1="34892.7" x2="6327.98" y2="34871.1" gradientUnits="userSpaceOnUse">
<stop offset="0.01"/>
<stop offset="0.13" stop-opacity="0.69"/>
<stop offset="1" stop-opacity="0"/>
</linearGradient>
<linearGradient id="paint2_linear_6_91" x1="12061.6" y1="38879.7" x2="10362.3" y2="38949.2" gradientUnits="userSpaceOnUse">
<stop offset="0.01"/>
<stop offset="0.13" stop-opacity="0.69"/>
<stop offset="1" stop-opacity="0"/>
</linearGradient>
<linearGradient id="paint3_linear_6_91" x1="17555.9" y1="25799.2" x2="13927.1" y2="25593.8" gradientUnits="userSpaceOnUse">
<stop offset="0.01"/>
<stop offset="0.13" stop-opacity="0.69"/>
<stop offset="1" stop-opacity="0"/>
</linearGradient>
<linearGradient id="paint4_linear_6_91" x1="9123.53" y1="26190.1" x2="7798.1" y2="26254" gradientUnits="userSpaceOnUse">
<stop offset="0.01"/>
<stop offset="0.13" stop-opacity="0.69"/>
<stop offset="1" stop-opacity="0"/>
</linearGradient>
<clipPath id="clip0_6_91">
<rect width="579" height="427" fill="white"/>
</clipPath>
</defs>
</svg>