<?xml version="1.0" standalone="no"?>
<svg xmlns="http://www.w3.org/2000/svg" width="338.72776269482154" height="80.08776269482152" viewBox="0 0 338.72776269482154 80.08776269482152"><g fill="#020202" color="#020202" transform="translate(0 0) scale(0.8008777)"><svg width="100.0" height="100.0" x="0.0" y="0.0" viewBox="0 0 100 100"><g><path d="M93.926,7.859c-0.097-0.163-0.214-0.312-0.349-0.445l-0.398-0.4c-0.132-0.129-0.278-0.242-0.434-0.337   c-4.462-2.678-12.771-0.174-18.521,5.58l-8.416,8.414l-38.194-2.546c-0.062-0.003-0.123-0.006-0.185-0.006   c-3.17,0.044-5.575,1.787-6.126,4.446c-0.542,2.612,0.829,6.561,6.472,9.113l18.231,9.116c-2.979,3.5-8.587,10.266-11.385,14.817   l-10.62,1.181c-1.269,0.141-2.183,1.284-2.042,2.555l0.653,5.886c0.117,1.047,0.926,1.884,1.972,2.033l7.661,1.094l1.096,7.663   c0.149,1.043,0.984,1.854,2.033,1.972l5.886,0.653c0.606,0.065,1.219-0.11,1.699-0.492c0.48-0.384,0.785-0.94,0.855-1.552   l1.178-10.621c4.553-2.797,11.317-8.402,14.818-11.382l9.116,18.231c2.218,4.902,5.49,6.58,8.024,6.58   c0.381,0,0.747-0.038,1.087-0.108c2.66-0.551,4.403-2.956,4.444-6.126c0-0.062,0-0.123-0.003-0.185l-2.549-38.198l8.414-8.414   C94.099,20.629,96.604,12.321,93.926,7.859z M75.92,32.266c-0.472,0.472-0.718,1.125-0.674,1.79l2.61,39.141   c-0.023,0.706-0.231,1.468-0.756,1.576c-0.785,0.159-2.566-0.744-3.979-3.884c-0.012-0.029-0.026-0.057-0.041-0.086l-10.464-20.93   c-0.319-0.642-0.92-1.099-1.623-1.236c-0.146-0.029-0.296-0.043-0.445-0.043c-0.557,0-1.099,0.201-1.523,0.576   c-0.117,0.101-11.725,10.272-17.326,13.383c-0.653,0.363-1.093,1.022-1.175,1.767l-1.052,9.475l-1.808-0.202L36.61,66.21   c-0.085-0.577-0.372-1.075-0.782-1.427c-0.354-0.415-0.853-0.706-1.433-0.788L27.01,62.94l-0.199-1.808l9.475-1.055   c0.744-0.082,1.403-0.519,1.767-1.175c3.111-5.602,13.28-17.208,13.383-17.324c0.472-0.539,0.668-1.267,0.53-1.972   c-0.138-0.703-0.592-1.302-1.233-1.623L29.802,27.52c-0.029-0.015-0.059-0.026-0.088-0.041c-3.138-1.409-4.049-3.188-3.885-3.976   c0.108-0.524,0.873-0.734,1.579-0.757l39.141,2.609c0.665,0.041,1.315-0.199,1.79-0.672l9.154-9.157   c4.614-4.614,10.351-5.996,12.604-5.019c0.973,2.256-0.407,7.989-5.021,12.604L75.92,32.266z"></path><path d="M26.061,46.546c0.902-0.902,0.902-2.367,0-3.269c-0.902-0.904-2.367-0.904-3.27,0L5.679,60.389   c-0.905,0.903-0.905,2.367,0,3.271c0.451,0.451,1.043,0.679,1.635,0.679s1.184-0.228,1.635-0.679L26.061,46.546z"></path><path d="M53.312,75.652L38.515,90.45c-0.905,0.903-0.905,2.366,0,3.269c0.451,0.453,1.043,0.679,1.635,0.679   s1.184-0.226,1.635-0.679l14.798-14.797c0.905-0.902,0.905-2.367,0-3.27C55.68,74.747,54.215,74.747,53.312,75.652z"></path><path d="M24.64,72.876L9.379,88.139c-0.905,0.902-0.905,2.367,0,3.27c0.451,0.451,1.043,0.676,1.635,0.676s1.184-0.225,1.635-0.676   l15.261-15.261c0.902-0.904,0.902-2.367,0-3.271C27.007,71.973,25.542,71.973,24.64,72.876z"></path></g></svg></g><path fill="#000000" fill-rule="nonzero" d="M0 28.24L0 0.24L11.40 0.24Q15.84 0.24 19.24 2.02Q22.64 3.80 24.52 6.98Q26.40 10.16 26.40 14.24L26.40 14.24Q26.40 18.32 24.52 21.50Q22.64 24.68 19.24 26.46Q15.84 28.24 11.40 28.24L11.40 28.24L0 28.24ZM2.96 25.68L11.24 25.68Q14.92 25.68 17.68 24.22Q20.44 22.76 21.96 20.18Q23.48 17.60 23.48 14.24L23.48 14.24Q23.48 10.88 21.96 8.30Q20.44 5.72 17.68 4.26Q14.92 2.80 11.24 2.80L11.24 2.80L2.96 2.80L2.96 25.68ZM51.92 22.80L53.04 25.04Q51.32 26.68 48.46 27.58Q45.60 28.48 42.12 28.48L42.12 28.48Q38.44 28.48 35.86 27.48Q33.28 26.48 31.98 24.72Q30.68 22.96 30.68 20.68L30.68 20.68Q30.68 18.16 32.18 16.40Q33.68 14.64 36.12 13.96L36.12 13.96Q34.12 13.20 33 11.54Q31.88 9.88 31.88 7.64L31.88 7.64Q31.88 5.52 33.10 3.78Q34.32 2.04 36.78 1.02Q39.24 0 42.72 0L42.72 0Q45.28 0 47.70 0.58Q50.12 1.16 51.84 2.24L51.84 2.24L50.92 4.60Q47.24 2.52 42.84 2.52L42.84 2.52Q38.96 2.52 36.90 4Q34.84 5.48 34.84 7.84L34.84 7.84Q34.84 10.20 36.50 11.48Q38.16 12.76 41.20 12.76L41.20 12.76L48.16 12.76L48.16 15.32L41.08 15.32Q37.64 15.32 35.64 16.62Q33.64 17.92 33.64 20.48L33.64 20.48Q33.64 23 35.82 24.48Q38 25.96 42.24 25.96L42.24 25.96Q45.20 25.96 47.76 25.12Q50.32 24.28 51.92 22.80L51.92 22.80ZM78.68 0.24L81.68 0.24L69.28 28.24L66.36 28.24L53.96 0.24L57.16 0.24L67.88 24.56L78.68 0.24ZM104.36 22.80L105.48 25.04Q103.76 26.68 100.90 27.58Q98.04 28.48 94.56 28.48L94.56 28.48Q90.88 28.48 88.30 27.48Q85.72 26.48 84.42 24.72Q83.12 22.96 83.12 20.68L83.12 20.68Q83.12 18.16 84.62 16.40Q86.12 14.64 88.56 13.96L88.56 13.96Q86.56 13.20 85.44 11.54Q84.32 9.88 84.32 7.64L84.32 7.64Q84.32 5.52 85.54 3.78Q86.76 2.04 89.22 1.02Q91.68 0 95.16 0L95.16 0Q97.72 0 100.14 0.58Q102.56 1.16 104.28 2.24L104.28 2.24L103.36 4.60Q99.68 2.52 95.28 2.52L95.28 2.52Q91.40 2.52 89.34 4Q87.28 5.48 87.28 7.84L87.28 7.84Q87.28 10.20 88.94 11.48Q90.60 12.76 93.64 12.76L93.64 12.76L100.60 12.76L100.60 15.32L93.52 15.32Q90.08 15.32 88.08 16.62Q86.08 17.92 86.08 20.48L86.08 20.48Q86.08 23 88.26 24.48Q90.44 25.96 94.68 25.96L94.68 25.96Q97.64 25.96 100.20 25.12Q102.76 24.28 104.36 22.80L104.36 22.80ZM110.84 28.24L110.84 0.24L113.80 0.24L113.80 25.68L129.48 25.68L129.48 28.24L110.84 28.24ZM146.08 28.48Q141.92 28.48 138.54 26.62Q135.16 24.76 133.26 21.52Q131.36 18.28 131.36 14.24L131.36 14.24Q131.36 10.20 133.26 6.96Q135.16 3.72 138.54 1.86Q141.92 0 146.08 0L146.08 0Q150.24 0 153.58 1.84Q156.92 3.68 158.84 6.94Q160.76 10.20 160.76 14.24L160.76 14.24Q160.76 18.28 158.84 21.54Q156.92 24.80 153.58 26.64Q150.24 28.48 146.08 28.48L146.08 28.48ZM146.08 25.84Q149.40 25.84 152.08 24.34Q154.76 22.84 156.28 20.18Q157.80 17.52 157.80 14.24L157.80 14.24Q157.80 10.96 156.28 8.30Q154.76 5.64 152.08 4.14Q149.40 2.64 146.08 2.64L146.08 2.64Q142.76 2.64 140.06 4.14Q137.36 5.64 135.82 8.30Q134.28 10.96 134.28 14.24L134.28 14.24Q134.28 17.52 135.82 20.18Q137.36 22.84 140.06 24.34Q142.76 25.84 146.08 25.84L146.08 25.84ZM177.88 0.24Q183.24 0.24 186.28 2.80Q189.32 5.36 189.32 9.84L189.32 9.84Q189.32 14.32 186.28 16.86Q183.24 19.40 177.88 19.40L177.88 19.40L170.36 19.40L170.36 28.24L167.40 28.24L167.40 0.24L177.88 0.24ZM177.80 16.80Q181.96 16.80 184.16 14.98Q186.36 13.16 186.36 9.84L186.36 9.84Q186.36 6.44 184.16 4.62Q181.96 2.80 177.80 2.80L177.80 2.80L170.36 2.80L170.36 16.80L177.80 16.80ZM214.80 22.80L215.92 25.04Q214.20 26.68 211.34 27.58Q208.48 28.48 205 28.48L205 28.48Q201.32 28.48 198.74 27.48Q196.16 26.48 194.86 24.72Q193.56 22.96 193.56 20.68L193.56 20.68Q193.56 18.16 195.06 16.40Q196.56 14.64 199 13.96L199 13.96Q197.00 13.20 195.88 11.54Q194.76 9.88 194.76 7.64L194.76 7.64Q194.76 5.52 195.98 3.78Q197.20 2.04 199.66 1.02Q202.12 0 205.60 0L205.60 0Q208.16 0 210.58 0.58Q213 1.16 214.72 2.24L214.72 2.24L213.80 4.60Q210.12 2.52 205.72 2.52L205.72 2.52Q201.84 2.52 199.78 4Q197.72 5.48 197.72 7.84L197.72 7.84Q197.72 10.20 199.38 11.48Q201.04 12.76 204.08 12.76L204.08 12.76L211.04 12.76L211.04 15.32L203.96 15.32Q200.52 15.32 198.52 16.62Q196.52 17.92 196.52 20.48L196.52 20.48Q196.52 23 198.70 24.48Q200.88 25.96 205.12 25.96L205.12 25.96Q208.08 25.96 210.64 25.12Q213.20 24.28 214.80 22.80L214.80 22.80ZM243.64 28.24L240.40 28.24L234.00 19.24Q232.92 19.36 231.76 19.36L231.76 19.36L224.24 19.36L224.24 28.24L221.28 28.24L221.28 0.24L231.76 0.24Q237.12 0.24 240.16 2.80Q243.20 5.36 243.20 9.84L243.20 9.84Q243.20 13.12 241.54 15.38Q239.88 17.64 236.80 18.64L236.80 18.64L243.64 28.24ZM231.68 16.84Q235.84 16.84 238.04 15.00Q240.24 13.16 240.24 9.84L240.24 9.84Q240.24 6.44 238.04 4.62Q235.84 2.80 231.68 2.80L231.68 2.80L224.24 2.80L224.24 16.84L231.68 16.84Z" transform="translate(95.088 0) scale(1)"></path><path fill="#000000" fill-rule="nonzero" d="M23.40 3.08L22.32 5.40Q18.20 3 13.20 2.64L13.20 2.64L13.20 28.24L10.24 28.24L10.24 2.64Q5.32 2.96 1.08 5.40L1.08 5.40L0 3.08Q5.20 0 11.68 0L11.68 0Q18.28 0 23.40 3.08L23.40 3.08ZM50.24 28.24L47 28.24L40.60 19.24Q39.52 19.36 38.36 19.36L38.36 19.36L30.84 19.36L30.84 28.24L27.88 28.24L27.88 0.24L38.36 0.24Q43.72 0.24 46.76 2.80Q49.80 5.36 49.80 9.84L49.80 9.84Q49.80 13.12 48.14 15.38Q46.48 17.64 43.40 18.64L43.40 18.64L50.24 28.24ZM38.28 16.84Q42.44 16.84 44.64 15.00Q46.84 13.16 46.84 9.84L46.84 9.84Q46.84 6.44 44.64 4.62Q42.44 2.80 38.28 2.80L38.28 2.80L30.84 2.80L30.84 16.84L38.28 16.84ZM68.24 0Q73.68 0 76.82 3.18Q79.96 6.36 79.96 12.36L79.96 12.36L79.96 28.24L77.04 28.24L77.04 20L59.44 20L59.44 28.24L56.56 28.24L56.56 12.36Q56.56 6.36 59.70 3.18Q62.84 0 68.24 0L68.24 0ZM59.44 17.44L77.04 17.44L77.04 12.08Q77.04 7.40 74.72 5.02Q72.40 2.64 68.24 2.64L68.24 2.64Q64.08 2.64 61.76 5.02Q59.44 7.40 59.44 12.08L59.44 12.08L59.44 17.44ZM108.32 0.24L111.32 0.24L98.92 28.24L96 28.24L83.60 0.24L86.80 0.24L97.52 24.56L108.32 0.24ZM134 22.80L135.12 25.04Q133.40 26.68 130.54 27.58Q127.68 28.48 124.20 28.48L124.20 28.48Q120.52 28.48 117.94 27.48Q115.36 26.48 114.06 24.72Q112.76 22.96 112.76 20.68L112.76 20.68Q112.76 18.16 114.26 16.40Q115.76 14.64 118.20 13.96L118.20 13.96Q116.20 13.20 115.08 11.54Q113.96 9.88 113.96 7.64L113.96 7.64Q113.96 5.52 115.18 3.78Q116.40 2.04 118.86 1.02Q121.32 0 124.80 0L124.80 0Q127.36 0 129.78 0.58Q132.20 1.16 133.92 2.24L133.92 2.24L133 4.60Q129.32 2.52 124.92 2.52L124.92 2.52Q121.04 2.52 118.98 4Q116.92 5.48 116.92 7.84L116.92 7.84Q116.92 10.20 118.58 11.48Q120.24 12.76 123.28 12.76L123.28 12.76L130.24 12.76L130.24 15.32L123.16 15.32Q119.72 15.32 117.72 16.62Q115.72 17.92 115.72 20.48L115.72 20.48Q115.72 23 117.90 24.48Q120.08 25.96 124.32 25.96L124.32 25.96Q127.28 25.96 129.84 25.12Q132.40 24.28 134 22.80L134 22.80ZM140.48 28.24L140.48 0.24L143.44 0.24L143.44 25.68L159.12 25.68L159.12 28.24L140.48 28.24Z" transform="translate(95.088 36.481) scale(1.532)"></path></svg>