<?xml version="1.0" standalone="no"?>
<svg xmlns="http://www.w3.org/2000/svg" width="287.0209678208138" height="76.63034282081378" viewBox="0 0 287.0209678208138 76.63034282081378"><g fill="#141313" color="#141313" transform="translate(0 0) scale(0.7663035)"><svg width="100.0" height="100.0" x="0.0" y="0.0" viewBox="0 0 100 100"><g><path d="M93.926,7.859c-0.097-0.163-0.214-0.312-0.349-0.445l-0.398-0.4c-0.132-0.129-0.278-0.242-0.434-0.337   c-4.462-2.678-12.771-0.174-18.521,5.58l-8.416,8.414l-38.194-2.546c-0.062-0.003-0.123-0.006-0.185-0.006   c-3.17,0.044-5.575,1.787-6.126,4.446c-0.542,2.612,0.829,6.561,6.472,9.113l18.231,9.116c-2.979,3.5-8.587,10.266-11.385,14.817   l-10.62,1.181c-1.269,0.141-2.183,1.284-2.042,2.555l0.653,5.886c0.117,1.047,0.926,1.884,1.972,2.033l7.661,1.094l1.096,7.663   c0.149,1.043,0.984,1.854,2.033,1.972l5.886,0.653c0.606,0.065,1.219-0.11,1.699-0.492c0.48-0.384,0.785-0.94,0.855-1.552   l1.178-10.621c4.553-2.797,11.317-8.402,14.818-11.382l9.116,18.231c2.218,4.902,5.49,6.58,8.024,6.58   c0.381,0,0.747-0.038,1.087-0.108c2.66-0.551,4.403-2.956,4.444-6.126c0-0.062,0-0.123-0.003-0.185l-2.549-38.198l8.414-8.414   C94.099,20.629,96.604,12.321,93.926,7.859z M75.92,32.266c-0.472,0.472-0.718,1.125-0.674,1.79l2.61,39.141   c-0.023,0.706-0.231,1.468-0.756,1.576c-0.785,0.159-2.566-0.744-3.979-3.884c-0.012-0.029-0.026-0.057-0.041-0.086l-10.464-20.93   c-0.319-0.642-0.92-1.099-1.623-1.236c-0.146-0.029-0.296-0.043-0.445-0.043c-0.557,0-1.099,0.201-1.523,0.576   c-0.117,0.101-11.725,10.272-17.326,13.383c-0.653,0.363-1.093,1.022-1.175,1.767l-1.052,9.475l-1.808-0.202L36.61,66.21   c-0.085-0.577-0.372-1.075-0.782-1.427c-0.354-0.415-0.853-0.706-1.433-0.788L27.01,62.94l-0.199-1.808l9.475-1.055   c0.744-0.082,1.403-0.519,1.767-1.175c3.111-5.602,13.28-17.208,13.383-17.324c0.472-0.539,0.668-1.267,0.53-1.972   c-0.138-0.703-0.592-1.302-1.233-1.623L29.802,27.52c-0.029-0.015-0.059-0.026-0.088-0.041c-3.138-1.409-4.049-3.188-3.885-3.976   c0.108-0.524,0.873-0.734,1.579-0.757l39.141,2.609c0.665,0.041,1.315-0.199,1.79-0.672l9.154-9.157   c4.614-4.614,10.351-5.996,12.604-5.019c0.973,2.256-0.407,7.989-5.021,12.604L75.92,32.266z"></path><path d="M26.061,46.546c0.902-0.902,0.902-2.367,0-3.269c-0.902-0.904-2.367-0.904-3.27,0L5.679,60.389   c-0.905,0.903-0.905,2.367,0,3.271c0.451,0.451,1.043,0.679,1.635,0.679s1.184-0.228,1.635-0.679L26.061,46.546z"></path><path d="M53.312,75.652L38.515,90.45c-0.905,0.903-0.905,2.366,0,3.269c0.451,0.453,1.043,0.679,1.635,0.679   s1.184-0.226,1.635-0.679l14.798-14.797c0.905-0.902,0.905-2.367,0-3.27C55.68,74.747,54.215,74.747,53.312,75.652z"></path><path d="M24.64,72.876L9.379,88.139c-0.905,0.902-0.905,2.367,0,3.27c0.451,0.451,1.043,0.676,1.635,0.676s1.184-0.225,1.635-0.676   l15.261-15.261c0.902-0.904,0.902-2.367,0-3.271C27.007,71.973,25.542,71.973,24.64,72.876z"></path></g></svg></g><path fill="#212121" fill-rule="nonzero" d="M5.96 26.95L5.96 26.95Q2.79 26.95 0 26.45L0 26.45L0 0.31Q2.58 0 5.99 0Q9.39 0 12.16 0.93Q14.92 1.86 16.78 3.57L16.78 3.57Q20.53 7.01 20.53 13.20L20.53 13.20Q20.53 20.14 16.35 23.73L16.35 23.73Q12.60 26.95 5.96 26.95ZM5.08 4.79L5.08 22.19Q6.35 22.42 7.62 22.42Q8.89 22.42 10.35 21.92Q11.82 21.43 12.89 20.37L12.89 20.37Q15.20 18.14 15.20 13.89L15.20 13.89Q15.20 6.89 10.10 5.29L10.10 5.29Q8.42 4.77 6.21 4.77L6.21 4.77L5.68 4.77Q5.39 4.77 5.08 4.79L5.08 4.79ZM31.37 21.78L39.34 21.78Q40.55 21.78 41.02 21.54L41.02 21.54L41.09 21.56L40.90 26.46L26.27 26.46L26.27 0.35Q26.80 0.39 27.44 0.41L27.44 0.41L28.81 0.45Q30.18 0.49 31.78 0.49L31.78 0.49Q36.25 0.49 40.63 0.33L40.63 0.33Q40.41 2.05 40.41 4.92L40.41 4.92Q40.41 5.23 40.45 5.39L40.45 5.39L40.41 5.45Q39.39 5.16 37.52 5.16L37.52 5.16L31.37 5.16L31.37 10.14L36.00 10.14Q38.14 10.14 38.57 10.02L38.57 10.02L38.63 14.84Q37.70 14.75 36.21 14.75L36.21 14.75L31.37 14.75L31.37 21.78ZM57.46 26.48L57.42 26.54Q56.80 26.46 55.37 26.46L55.37 26.46L53.22 26.46Q52.70 26.46 52.27 26.50L52.27 26.50L52.25 26.46Q52.32 26.33 52.32 26.15Q52.32 25.98 52.29 25.78Q52.27 25.59 52.13 25.08Q51.99 24.57 51.70 23.61L51.70 23.61L50.88 21.00L43.61 0.41Q44.82 0.49 46.70 0.49Q48.57 0.49 49.10 0.33L49.10 0.33L54.98 18.09L60.14 0.41Q61.31 0.49 63.03 0.49L63.03 0.49Q65.37 0.49 65.76 0.33L65.76 0.33L58.63 20.94Q58.63 20.94 57.95 23.22L57.95 23.22Q57.38 25.18 57.38 25.75Q57.38 26.33 57.46 26.48L57.46 26.48ZM74.71 21.78L82.68 21.78Q83.89 21.78 84.36 21.54L84.36 21.54L84.43 21.56L84.24 26.46L69.61 26.46L69.61 0.35Q70.14 0.39 70.78 0.41L70.78 0.41L72.15 0.45Q73.52 0.49 75.12 0.49L75.12 0.49Q79.59 0.49 83.96 0.33L83.96 0.33Q83.75 2.05 83.75 4.92L83.75 4.92Q83.75 5.23 83.79 5.39L83.79 5.39L83.75 5.45Q82.73 5.16 80.86 5.16L80.86 5.16L74.71 5.16L74.71 10.14L79.34 10.14Q81.48 10.14 81.91 10.02L81.91 10.02L81.97 14.84Q81.04 14.75 79.55 14.75L79.55 14.75L74.71 14.75L74.71 21.78ZM95.31 26.46L93.46 26.46Q90.59 26.46 89.65 26.58L89.65 26.58L89.65 0.37Q90.12 0.49 91.59 0.49Q93.07 0.49 95.02 0.41L95.02 0.41L95.02 21.78L99.06 21.78Q100.82 21.78 101.88 21.66L101.88 21.66Q101.74 26.23 101.74 26.41L101.74 26.41L101.74 26.60Q99.82 26.46 95.31 26.46L95.31 26.46ZM108.48 23.38Q106.70 21.68 105.67 19.30Q104.65 16.91 104.65 14.07Q104.65 11.23 105.61 8.69Q106.56 6.15 108.34 4.22Q110.12 2.29 112.64 1.14Q115.16 0 118.28 0L118.28 0Q123.67 0 127.36 3.40L127.36 3.40Q131.31 7.03 131.31 13.20L131.31 13.20Q131.31 19.18 127.25 23.14L127.25 23.14Q124.75 25.59 121.29 26.50L121.29 26.50Q119.59 26.95 117.31 26.95Q115.04 26.95 112.65 26.02Q110.25 25.08 108.48 23.38ZM110.08 13.81L110.08 13.81Q110.08 15.63 110.68 17.15Q111.29 18.67 112.36 19.77L112.36 19.77Q114.65 22.07 118.24 22.07L118.24 22.07Q121.66 22.07 123.73 19.86L123.73 19.86Q125.84 17.58 125.84 13.63L125.84 13.63Q125.84 9.92 123.83 7.44L123.83 7.44Q121.66 4.79 117.89 4.79L117.89 4.79Q114.24 4.79 112.09 7.48L112.09 7.48Q110.08 10 110.08 13.81ZM135.96 26.46L135.96 0.35Q138.67 0 141.52 0L141.52 0Q146.84 0 149.60 2.49Q152.36 4.98 152.36 9.94L152.36 9.94Q152.36 14.38 149.34 16.95L149.34 16.95Q146.50 19.38 142.05 19.38L142.05 19.38Q141.54 19.38 140.94 19.32L140.94 19.32L140.94 26.46L135.96 26.46ZM142.11 4.71L142.11 4.71Q141.52 4.71 140.94 4.75L140.94 4.75L140.94 15.02Q141.56 15.10 142.46 15.10Q143.36 15.10 144.34 14.72Q145.31 14.34 145.98 13.65L145.98 13.65Q147.36 12.23 147.36 9.90L147.36 9.90Q147.36 4.71 142.11 4.71ZM161.46 21.78L169.43 21.78Q170.64 21.78 171.11 21.54L171.11 21.54L171.19 21.56L171.00 26.46L156.37 26.46L156.37 0.35Q156.89 0.39 157.54 0.41L157.54 0.41L158.91 0.45Q160.27 0.49 161.88 0.49L161.88 0.49Q166.35 0.49 170.72 0.33L170.72 0.33Q170.51 2.05 170.51 4.92L170.51 4.92Q170.51 5.23 170.55 5.39L170.55 5.39L170.51 5.45Q169.49 5.16 167.62 5.16L167.62 5.16L161.46 5.16L161.46 10.14L166.09 10.14Q168.24 10.14 168.67 10.02L168.67 10.02L168.73 14.84Q167.79 14.75 166.31 14.75L166.31 14.75L161.46 14.75L161.46 21.78ZM189.34 26.62L184.80 16.37Q184.22 16.41 183.55 16.41Q182.89 16.41 181.58 16.31L181.58 16.31L181.58 26.46L176.41 26.46L176.41 0.35Q179.14 0 183.13 0L183.13 0Q188.55 0 191.22 2.00Q193.89 4.00 193.89 8.18L193.89 8.18Q193.89 11.43 191.45 13.73L191.45 13.73Q190.64 14.47 189.61 15.02L189.61 15.02L193.59 23.42Q194.77 26.02 195.39 26.50L195.39 26.50L195.29 26.60Q193.40 26.29 189.34 26.62L189.34 26.62ZM183.50 4.61L183.50 4.61Q182.50 4.61 181.58 4.71L181.58 4.71L181.58 12.17Q182.54 12.30 183.83 12.30Q185.12 12.30 186.00 12.08Q186.88 11.86 187.52 11.39L187.52 11.39Q188.91 10.35 188.91 8.28Q188.91 6.21 187.46 5.37L187.46 5.37Q186.11 4.61 183.50 4.61Z" transform="translate(91.631 0) scale(1)"></path><path fill="#212121" fill-rule="nonzero" d="M11.89 4.86L11.89 26.58Q10.96 26.46 7.07 26.46L7.07 26.46L6.45 26.46L6.45 4.86L2.58 4.86Q0.86 4.86 0.55 5.04Q0.23 5.21 0.06 5.35L0.06 5.35L0 5.33L0 0.33L0.06 0.27Q0.70 0.49 3.54 0.49L3.54 0.49L15.78 0.49Q17.50 0.49 17.81 0.31Q18.13 0.14 18.30 0L18.30 0L18.36 0.02L18.36 5.02L18.30 5.08Q17.66 4.86 14.82 4.86L14.82 4.86L11.89 4.86ZM35.49 26.62L30.96 16.37Q30.37 16.41 29.71 16.41Q29.04 16.41 27.73 16.31L27.73 16.31L27.73 26.46L22.56 26.46L22.56 0.35Q25.29 0 29.28 0L29.28 0Q34.71 0 37.37 2.00Q40.04 4.00 40.04 8.18L40.04 8.18Q40.04 11.43 37.60 13.73L37.60 13.73Q36.80 14.47 35.76 15.02L35.76 15.02L39.75 23.42Q40.92 26.02 41.54 26.50L41.54 26.50L41.45 26.60Q39.55 26.29 35.49 26.62L35.49 26.62ZM29.65 4.61L29.65 4.61Q28.65 4.61 27.73 4.71L27.73 4.71L27.73 12.17Q28.69 12.30 29.98 12.30Q31.27 12.30 32.15 12.08Q33.03 11.86 33.67 11.39L33.67 11.39Q35.06 10.35 35.06 8.28Q35.06 6.21 33.61 5.37L33.61 5.37Q32.27 4.61 29.65 4.61ZM49.59 20.84L47.75 26.62Q46.07 26.46 43.83 26.46L43.83 26.46L42.29 26.46L50.78 2.66Q51.35 1.05 51.35 0.79Q51.35 0.53 51.33 0.47L51.33 0.47L51.35 0.43Q52.62 0.49 54.04 0.49L54.04 0.49Q55.21 0.49 56.86 0.45L56.86 0.45L56.88 0.49Q56.84 0.57 56.84 0.70L56.84 0.70Q56.84 1.07 57.42 2.68L57.42 2.68L66.09 26.52Q65.70 26.50 65.18 26.50L65.18 26.50Q65.18 26.50 64.16 26.46L64.16 26.46Q63.67 26.46 63.28 26.46L63.28 26.46L60.25 26.46L58.42 20.84L49.59 20.84ZM51.07 16.15L56.89 16.15L53.95 7.07L51.07 16.15ZM80.39 26.48L80.35 26.54Q79.73 26.46 78.30 26.46L78.30 26.46L76.15 26.46Q75.63 26.46 75.20 26.50L75.20 26.50L75.18 26.46Q75.25 26.33 75.25 26.15Q75.25 25.98 75.22 25.78Q75.20 25.59 75.06 25.08Q74.92 24.57 74.63 23.61L74.63 23.61L73.81 21.00L66.54 0.41Q67.75 0.49 69.63 0.49Q71.50 0.49 72.03 0.33L72.03 0.33L77.91 18.09L83.07 0.41Q84.24 0.49 85.96 0.49L85.96 0.49Q88.30 0.49 88.69 0.33L88.69 0.33L81.56 20.94Q81.56 20.94 80.88 23.22L80.88 23.22Q80.31 25.18 80.31 25.75Q80.31 26.33 80.39 26.48L80.39 26.48ZM97.64 21.78L105.61 21.78Q106.82 21.78 107.29 21.54L107.29 21.54L107.36 21.56L107.17 26.46L92.54 26.46L92.54 0.35Q93.07 0.39 93.71 0.41L93.71 0.41L95.08 0.45Q96.45 0.49 98.05 0.49L98.05 0.49Q102.52 0.49 106.89 0.33L106.89 0.33Q106.68 2.05 106.68 4.92L106.68 4.92Q106.68 5.23 106.72 5.39L106.72 5.39L106.68 5.45Q105.66 5.16 103.79 5.16L103.79 5.16L97.64 5.16L97.64 10.14L102.27 10.14Q104.41 10.14 104.84 10.02L104.84 10.02L104.90 14.84Q103.96 14.75 102.48 14.75L102.48 14.75L97.64 14.75L97.64 21.78ZM118.24 26.46L116.39 26.46Q113.52 26.46 112.58 26.58L112.58 26.58L112.58 0.37Q113.05 0.49 114.52 0.49Q116.00 0.49 117.95 0.41L117.95 0.41L117.95 21.78L121.99 21.78Q123.75 21.78 124.80 21.66L124.80 21.66Q124.67 26.23 124.67 26.41L124.67 26.41L124.67 26.60Q122.75 26.46 118.24 26.46L118.24 26.46Z" transform="translate(91.631 34.954) scale(1.566)"></path></svg>